<!DOCTYPE svg PUBLIC "-//W3C//DTD SVG 1.1//EN" "http://www.w3.org/Graphics/SVG/1.1/DTD/svg11.dtd">
<!-- Uploaded to: SVG Repo, www.svgrepo.com, Transformed by: SVG Repo Mixer Tools -->
<svg width="104px" height="104px" viewBox="-5.76 -5.76 35.52 35.52" fill="none" xmlns="http://www.w3.org/2000/svg">
<g id="SVGRepo_bgCarrier" stroke-width="0"/>
<g id="SVGRepo_tracerCarrier" stroke-linecap="round" stroke-linejoin="round"/>
<g id="SVGRepo_iconCarrier"> <path d="M11 16.25C10.9015 16.2505 10.8038 16.2313 10.7128 16.1935C10.6218 16.1557 10.5392 16.1001 10.47 16.03L6.99999 12.53C6.85954 12.3894 6.78065 12.1988 6.78065 12C6.78065 11.8013 6.85954 11.6107 6.99999 11.47L10.47 8.00003C10.611 7.90864 10.7785 7.86722 10.9458 7.88241C11.1131 7.89759 11.2705 7.96851 11.3927 8.08379C11.5149 8.19907 11.5948 8.35203 11.6197 8.51817C11.6446 8.68431 11.613 8.85399 11.53 9.00003L8.52999 12L11.53 15C11.6704 15.1407 11.7493 15.3313 11.7493 15.53C11.7493 15.7288 11.6704 15.9194 11.53 16.06C11.3853 16.1907 11.1948 16.259 11 16.25Z" fill="#000000"/> <path d="M16.5 16.25C16.3071 16.2353 16.1276 16.1455 16 16L12.5 12.5C12.3595 12.3594 12.2807 12.1688 12.2807 11.97C12.2807 11.7713 12.3595 11.5807 12.5 11.44L16 8.00004C16.1399 7.9332 16.2972 7.91139 16.45 7.93762C16.6029 7.96385 16.7439 8.03682 16.8535 8.14649C16.9632 8.25616 17.0362 8.39713 17.0624 8.54999C17.0886 8.70286 17.0668 8.86009 17 9.00004L14 12L17 15C17.123 15.1375 17.191 15.3156 17.191 15.5C17.191 15.6845 17.123 15.8625 17 16C16.8724 16.1455 16.6929 16.2353 16.5 16.25Z" fill="#000000"/> </g>
</svg>