<!DOCTYPE svg PUBLIC "-//W3C//DTD SVG 1.1//EN" "http://www.w3.org/Graphics/SVG/1.1/DTD/svg11.dtd">
<!-- Uploaded to: SVG Repo, www.svgrepo.com, Transformed by: SVG Repo Mixer Tools -->
<svg width="100px" height="100px" viewBox="-3.6 -3.6 31.20 31.20" fill="none" xmlns="http://www.w3.org/2000/svg" stroke="#000000" stroke-width="0.00024000000000000003">
<g id="SVGRepo_bgCarrier" stroke-width="0"/>
<g id="SVGRepo_tracerCarrier" stroke-linecap="round" stroke-linejoin="round"/>
<g id="SVGRepo_iconCarrier"> <path d="M13 16.25C12.9015 16.2505 12.8038 16.2312 12.7128 16.1935C12.6218 16.1557 12.5393 16.1001 12.47 16.03C12.3296 15.8894 12.2507 15.6987 12.2507 15.5C12.2507 15.3012 12.3296 15.1106 12.47 14.97L15.47 11.97L12.47 8.96999C12.3999 8.82472 12.3784 8.6607 12.4089 8.50227C12.4393 8.34385 12.5201 8.19947 12.6391 8.09056C12.7581 7.98165 12.909 7.91402 13.0695 7.89771C13.23 7.88139 13.3915 7.91726 13.53 7.99999L17.03 11.5C17.1705 11.6406 17.2494 11.8312 17.2494 12.03C17.2494 12.2287 17.1705 12.4194 17.03 12.56L13.53 16C13.4633 16.0756 13.3819 16.1367 13.2908 16.1797C13.1997 16.2227 13.1007 16.2466 13 16.25Z" fill="#000000"/> <path d="M7.5 16.25C7.30706 16.2352 7.12757 16.1455 7 16C6.87702 15.8625 6.80902 15.6845 6.80902 15.5C6.80902 15.3155 6.87702 15.1375 7 15L10 12L7 8.99998C6.93316 8.86003 6.91135 8.70279 6.93758 8.54993C6.96381 8.39707 7.03678 8.2561 7.14645 8.14643C7.25612 8.03676 7.39709 7.96379 7.54995 7.93756C7.70282 7.91133 7.86005 7.93314 8 7.99998L11.5 11.5C11.6405 11.6406 11.7193 11.8312 11.7193 12.03C11.7193 12.2287 11.6405 12.4194 11.5 12.56L8 16C7.87243 16.1455 7.69295 16.2352 7.5 16.25Z" fill="#000000"/> </g>
</svg>